<?xml version="1.0" standalone="no"?>
<!DOCTYPE svg PUBLIC "-//W3C//DTD SVG 20010904//EN"
 "http://www.w3.org/TR/2001/REC-SVG-20010904/DTD/svg10.dtd">
<svg version="1.0" xmlns="http://www.w3.org/2000/svg"
 width="700.000000pt" height="700.000000pt" viewBox="0 0 700.000000 700.000000"
 preserveAspectRatio="xMidYMid meet">
<metadata>
Created by potrace 1.11, written by Peter Selinger 2001-2013
</metadata>
<g transform="translate(0.000000,700.000000) scale(0.100000,-0.100000)"
fill="#000000" stroke="none">
<path d="M0 6128 l0 -873 870 870 c479 478 870 871 870 872 0 2 -391 3 -870 3
l-870 0 0 -872z"/>
<path d="M2617 4382 l-2617 -2617 0 -883 0 -882 868 0 867 0 2633 2633 2632
2632 0 868 0 867 -883 0 -882 0 -2618 -2618z"/>
<path d="M6125 870 l-870 -870 873 0 872 0 0 870 c0 479 -1 870 -3 870 -1 0
-394 -391 -872 -870z"/>
</g>
</svg>
