<?xml version="1.0" encoding="utf-8"?>
<!-- Generator: Adobe Illustrator 23.0.2, SVG Export Plug-In . SVG Version: 6.00 Build 0)  -->
<svg version="1.1" id="Layer_1" xmlns="http://www.w3.org/2000/svg" xmlns:xlink="http://www.w3.org/1999/xlink" x="0px" y="0px"
	 viewBox="0 0 260 260" style="enable-background:new 0 0 260 260;" xml:space="preserve">
<g>
	<polygon points="-453.4,53.2 18.7,303.3 -250.1,-151.9 205.1,116.9 -63.7,-338.3 372.9,-52.6 400.7,-422.3 47.9,-51.1 
		419.1,-403.9 66.3,-32.7 454.4,-42.2 -17.7,-292.3 251.1,162.9 -204.1,-105.9 64.7,349.3 -371.9,63.6 -399.7,433.3 -46.9,62.1 
		-418.1,414.9 -82.1,28.3 	"/>
</g>
<g>
	<polygon points="-366.7,139.8 105.4,390 -163.4,-65.2 291.8,203.6 23,-251.6 459.6,34.1 487.4,-335.6 134.6,35.6 505.8,-317.2 
		152.9,54 541,44.5 69,-205.7 337.8,249.5 -117.4,-19.3 151.4,435.9 -285.2,150.3 -313,519.9 39.8,148.8 -331.4,501.6 4.5,115 	"/>
</g>
<g>
	<polygon points="-280,226.5 192.1,476.7 -76.8,21.5 378.4,290.3 109.6,-164.9 546.2,120.7 574,-248.9 221.2,122.2 592.4,-230.6 
		239.6,140.6 627.7,131.2 155.6,-119 424.4,336.2 -30.8,67.4 238,522.6 -198.5,236.9 -226.4,606.6 126.4,235.4 -244.8,588.2 
		91.2,201.6 	"/>
</g>
<g>
	<polygon points="-193.4,313.2 278.7,563.3 9.9,108.1 465.1,376.9 196.3,-78.3 632.9,207.4 660.7,-162.3 307.9,208.9 679.1,-143.9 
		326.3,227.3 714.4,217.8 242.3,-32.3 511.1,422.9 55.9,154.1 324.7,609.3 -111.9,323.6 -139.7,693.3 213.1,322.1 -158.1,674.9 
		177.9,288.3 	"/>
</g>
</svg>
